<svg xmlns="http://www.w3.org/2000/svg" viewBox="0 0 1024 1024" role="img" aria-label="EMT App Icon">
  <defs>
    <linearGradient id="bg" x1="0" y1="0" x2="1" y2="1">
      <stop offset="0%" stop-color="#0A7FB8"/>
      <stop offset="100%" stop-color="#0B5A8A"/>
    </linearGradient>
    <linearGradient id="star" x1="0" y1="0" x2="1" y2="1">
      <stop offset="0%" stop-color="#4FA8FF"/>
      <stop offset="100%" stop-color="#0A43C7"/>
    </linearGradient>
    <filter id="shadow" x="-20%" y="-20%" width="140%" height="140%">
      <feDropShadow dx="0" dy="8" stdDeviation="10" flood-color="#073550" flood-opacity="0.22"/>
    </filter>
  </defs>

  <rect x="32" y="32" width="960" height="960" rx="220" fill="url(#bg)"/>

  <g filter="url(#shadow)">
    <g transform="translate(512 512) scale(1.05)">
      <g fill="url(#star)" stroke="#EAF4FF" stroke-width="18" stroke-linejoin="round">
        <rect x="-58" y="-360" width="116" height="720" rx="20"/>
        <rect x="-58" y="-360" width="116" height="720" rx="20" transform="rotate(60)"/>
        <rect x="-58" y="-360" width="116" height="720" rx="20" transform="rotate(120)"/>
      </g>
      <rect x="-56" y="-360" width="112" height="720" rx="16" fill="#0D49BD" stroke="#EAF4FF" stroke-width="10"/>
      <path d="M0 -292
               C46 -248 46 -190 0 -140
               C-46 -90 -46 -34 0 8
               C44 48 44 106 0 150
               C-44 194 -44 254 0 300" fill="none" stroke="#EAF4FF" stroke-width="28" stroke-linecap="round"/>
      <circle cx="0" cy="-292" r="17" fill="#EAF4FF"/>
      <circle cx="0" cy="300" r="17" fill="#EAF4FF"/>
    </g>
  </g>
</svg>
